<svg width="35" height="35" viewBox="0 0 35 35" fill="none" xmlns="http://www.w3.org/2000/svg">
<path d="M8.75 4.375C9.52549 4.37558 10.2788 4.63369 10.8917 5.10881C11.5046 5.58392 11.9424 6.24914 12.1363 7H24.5C25.1894 7 25.8721 7.1358 26.5091 7.39963C27.146 7.66347 27.7248 8.05018 28.2123 8.53769C28.6998 9.0252 29.0865 9.60395 29.3504 10.2409C29.6142 10.8779 29.75 11.5606 29.75 12.25C29.75 12.9394 29.6142 13.6221 29.3504 14.2591C29.0865 14.896 28.6998 15.4748 28.2123 15.9623C27.7248 16.4498 27.146 16.8365 26.5091 17.1004C25.8721 17.3642 25.1894 17.5 24.5 17.5H10.5C9.57174 17.5 8.68151 17.8687 8.02513 18.5251C7.36875 19.1815 7 20.0717 7 21C7 21.9283 7.36875 22.8185 8.02513 23.4749C8.68151 24.1313 9.57174 24.5 10.5 24.5H22.8638C23.0277 23.8667 23.366 23.292 23.8401 22.8413C24.3143 22.3905 24.9054 22.0818 25.5462 21.9501C26.187 21.8184 26.8519 21.8691 27.4654 22.0963C28.0789 22.3235 28.6163 22.7182 29.0168 23.2355C29.4172 23.7529 29.6645 24.3722 29.7307 25.023C29.7968 25.6739 29.6791 26.3302 29.391 26.9176C29.1028 27.5049 28.6558 27.9997 28.1006 28.3457C27.5453 28.6917 26.9042 28.8751 26.25 28.875C25.4745 28.8744 24.7212 28.6163 24.1083 28.1412C23.4954 27.6661 23.0576 27.0009 22.8638 26.25H10.5C9.10762 26.25 7.77226 25.6969 6.78769 24.7123C5.80313 23.7277 5.25 22.3924 5.25 21C5.25 19.6076 5.80313 18.2723 6.78769 17.2877C7.77226 16.3031 9.10762 15.75 10.5 15.75H24.5C25.4283 15.75 26.3185 15.3813 26.9749 14.7249C27.6313 14.0685 28 13.1783 28 12.25C28 11.3217 27.6313 10.4315 26.9749 9.77513C26.3185 9.11875 25.4283 8.75 24.5 8.75H12.1363C11.924 9.5752 11.4179 10.2946 10.7129 10.7731C10.008 11.2516 9.15255 11.4564 8.30729 11.349C7.46203 11.2416 6.68503 10.8294 6.12212 10.1898C5.55921 9.55015 5.24911 8.72706 5.25 7.875C5.25 6.94674 5.61875 6.0565 6.27513 5.40013C6.93151 4.74375 7.82174 4.375 8.75 4.375Z" fill="white"/>
</svg>
