<svg width="32" height="27" viewBox="0 0 32 27" fill="none" xmlns="http://www.w3.org/2000/svg">
<path d="M3.35417 6.125H3.0625C1.45833 6.125 0 4.8125 0 3.0625C0 1.45833 1.3125 0 3.0625 0H3.35417C4.95833 0 6.27083 1.3125 6.27083 3.0625C6.41667 4.8125 5.10417 6.125 3.35417 6.125ZM3.0625 1.45833C2.1875 1.45833 1.3125 2.1875 1.3125 3.20833C1.3125 4.22917 2.04167 4.95833 3.0625 4.95833H3.35417C4.22917 4.95833 5.10417 4.22917 5.10417 3.20833C5.10417 2.1875 4.375 1.45833 3.35417 1.45833H3.0625ZM3.35417 16.1875H3.0625C1.45833 16.1875 0 14.875 0 13.125C0 11.5208 1.3125 10.2083 3.0625 10.2083H3.35417C4.95833 10.2083 6.27083 11.5208 6.27083 13.125C6.41667 14.875 5.10417 16.1875 3.35417 16.1875ZM3.0625 11.5208C2.1875 11.5208 1.3125 12.25 1.3125 13.2708C1.3125 14.1458 2.04167 15.0208 3.0625 15.0208H3.35417C4.22917 15.0208 5.10417 14.2917 5.10417 13.2708C5.10417 12.3958 4.375 11.5208 3.35417 11.5208H3.0625ZM3.35417 26.25H3.0625C1.45833 26.25 0 24.9375 0 23.1875C0 21.5833 1.3125 20.125 3.0625 20.125H3.35417C4.95833 20.125 6.27083 21.4375 6.27083 23.1875C6.41667 24.7917 5.10417 26.25 3.35417 26.25ZM3.0625 21.4375C2.1875 21.4375 1.3125 22.1667 1.3125 23.1875C1.3125 24.2083 2.04167 24.9375 3.0625 24.9375H3.35417C4.22917 24.9375 5.10417 24.2083 5.10417 23.1875C5.10417 22.1667 4.375 21.4375 3.35417 21.4375H3.0625ZM28.2917 6.125H11.8125C10.2083 6.125 8.89583 4.8125 8.89583 3.0625C8.89583 1.45833 10.2083 0 11.8125 0H28.2917C29.8958 0 31.2083 1.3125 31.2083 3.0625C31.2083 4.8125 29.8958 6.125 28.2917 6.125ZM11.8125 1.45833C10.7917 1.45833 10.0625 2.1875 10.0625 3.20833C10.0625 4.22917 10.7917 4.8125 11.8125 4.8125H28.2917C29.1667 4.8125 30.0417 4.08333 30.0417 3.0625C30.0417 2.04167 29.1667 1.45833 28.2917 1.45833H11.8125ZM28.2917 16.1875H11.8125C10.2083 16.1875 8.89583 14.875 8.89583 13.125C8.89583 11.5208 10.2083 10.2083 11.8125 10.2083H28.2917C29.8958 10.2083 31.2083 11.5208 31.2083 13.125C31.2083 14.875 29.8958 16.1875 28.2917 16.1875ZM11.8125 11.5208C10.9375 11.5208 10.0625 12.25 10.0625 13.2708C10.0625 14.1458 10.7917 15.0208 11.8125 15.0208H28.2917C29.1667 15.0208 30.0417 14.2917 30.0417 13.2708C30.0417 12.3958 29.3125 11.5208 28.2917 11.5208H11.8125ZM28.2917 26.25H11.8125C10.2083 26.25 8.89583 24.9375 8.89583 23.1875C8.89583 21.5833 10.2083 20.125 11.8125 20.125H28.2917C29.8958 20.125 31.2083 21.4375 31.2083 23.1875C31.2083 24.7917 29.8958 26.25 28.2917 26.25ZM11.8125 21.4375C10.9375 21.4375 10.0625 22.1667 10.0625 23.1875C10.0625 24.2083 10.7917 24.9375 11.8125 24.9375H28.2917C29.1667 24.9375 30.0417 24.2083 30.0417 23.1875C30.0417 22.1667 29.3125 21.4375 28.2917 21.4375H11.8125Z" fill="white"/>
</svg>
