<svg width="35" height="35" viewBox="0 0 35 35" fill="none" xmlns="http://www.w3.org/2000/svg">
<path d="M23.5156 19.1406L29.5312 13.125M15.8594 14.7656L20.2344 19.1406M5.46875 21.875L12.5781 14.7656" stroke="white" stroke-width="1.5" stroke-linecap="round" stroke-linejoin="round"/>
<path d="M31.1719 13.125C32.078 13.125 32.8125 12.3905 32.8125 11.4844C32.8125 10.5783 32.078 9.84375 31.1719 9.84375C30.2658 9.84375 29.5312 10.5783 29.5312 11.4844C29.5312 12.3905 30.2658 13.125 31.1719 13.125Z" stroke="white" stroke-width="1.5" stroke-linecap="round" stroke-linejoin="round"/>
<path d="M21.875 22.4219C22.7811 22.4219 23.5156 21.6873 23.5156 20.7812C23.5156 19.8752 22.7811 19.1406 21.875 19.1406C20.9689 19.1406 20.2344 19.8752 20.2344 20.7812C20.2344 21.6873 20.9689 22.4219 21.875 22.4219Z" stroke="white" stroke-width="1.5" stroke-linecap="round" stroke-linejoin="round"/>
<path d="M14.2188 14.7656C15.1248 14.7656 15.8594 14.0311 15.8594 13.125C15.8594 12.2189 15.1248 11.4844 14.2188 11.4844C13.3127 11.4844 12.5781 12.2189 12.5781 13.125C12.5781 14.0311 13.3127 14.7656 14.2188 14.7656Z" stroke="white" stroke-width="1.5" stroke-linecap="round" stroke-linejoin="round"/>
<path d="M3.82812 25.1562C4.73422 25.1562 5.46875 24.4217 5.46875 23.5156C5.46875 22.6095 4.73422 21.875 3.82812 21.875C2.92203 21.875 2.1875 22.6095 2.1875 23.5156C2.1875 24.4217 2.92203 25.1562 3.82812 25.1562Z" stroke="white" stroke-width="1.5" stroke-linecap="round" stroke-linejoin="round"/>
</svg>
